<?xml version="1.0" standalone="no"?>
<!DOCTYPE svg PUBLIC "-//W3C//DTD SVG 20010904//EN"
 "http://www.w3.org/TR/2001/REC-SVG-20010904/DTD/svg10.dtd">
<svg version="1.0" xmlns="http://www.w3.org/2000/svg"
 width="1344.000000pt" height="297.000000pt" viewBox="0 0 1344.000000 297.000000"
 preserveAspectRatio="xMidYMid meet">

<g transform="translate(0.000000,297.000000) scale(0.100000,-0.100000)"
fill="#000000" stroke="none">
<path d="M2387 2713 l-49 -4 7 -62 c9 -85 43 -323 61 -427 8 -47 19 -107 24
-135 51 -294 178 -858 270 -1200 63 -237 159 -544 186 -597 l15 -28 243 0
c183 0 246 3 253 12 13 17 58 132 90 228 141 424 269 916 364 1394 16 83 32
152 34 155 10 9 14 -7 40 -134 66 -328 177 -777 269 -1091 57 -197 146 -464
175 -524 l16 -35 247 -3 c228 -2 248 -1 256 15 11 20 95 276 141 428 50 164
163 607 202 790 6 28 15 66 19 85 38 173 70 327 95 460 52 276 105 654 92 666
-3 3 -92 9 -197 12 -152 4 -194 2 -200 -8 -4 -7 -11 -38 -15 -69 -8 -72 -49
-358 -75 -526 -18 -115 -31 -190 -70 -405 -78 -427 -209 -980 -241 -1014 -19
-21 -41 24 -98 202 -136 421 -280 994 -406 1617 -20 99 -40 183 -44 188 -4 4
-97 6 -206 5 l-199 -3 -12 -55 c-7 -30 -17 -80 -23 -110 -11 -55 -36 -178 -52
-255 -90 -443 -272 -1148 -364 -1414 -65 -188 -85 -212 -112 -136 -48 138
-167 670 -244 1090 -6 33 -14 80 -19 105 -5 25 -14 79 -20 120 -7 41 -16 95
-20 120 -9 43 -51 344 -67 480 l-8 65 -155 1 c-85 0 -177 -1 -203 -3z"/>
<path d="M936 2687 c-51 -78 -186 -392 -298 -697 -189 -513 -453 -1357 -522
-1665 -4 -16 -9 -37 -12 -46 -4 -15 13 -17 148 -23 84 -4 174 -9 199 -12 l46
-5 47 183 c40 153 101 379 122 451 5 16 38 17 547 15 l542 -3 13 -40 c14 -41
49 -172 117 -435 21 -80 43 -150 49 -156 8 -9 50 -9 151 -3 77 4 162 8 189 8
l49 1 -6 43 c-8 54 -92 369 -163 607 -189 636 -538 1578 -656 1768 l-20 32
-264 0 c-263 0 -264 0 -278 -23z m359 -427 c118 -285 371 -1020 360 -1047 -6
-17 -870 -19 -880 -3 -15 24 223 733 342 1019 30 75 60 142 66 149 6 7 22 12
35 10 22 -3 32 -19 77 -128z"/>
<path d="M6322 2698 c-5 -7 -34 -62 -65 -123 -123 -246 -317 -773 -525 -1425
-95 -297 -259 -877 -250 -885 5 -5 383 -22 389 -19 4 2 15 34 24 71 26 98 123
459 141 521 l15 52 539 0 540 0 10 -22 c5 -13 32 -108 60 -213 28 -104 62
-232 75 -282 14 -51 25 -99 25 -107 0 -22 17 -24 165 -15 77 4 161 8 188 8 38
1 47 4 47 19 0 37 -90 374 -178 667 -191 635 -495 1457 -633 1710 l-28 50
-264 3 c-204 2 -267 -1 -275 -10z m295 -316 c41 -26 438 -1151 415 -1174 -5
-5 -204 -7 -443 -6 l-434 3 2 29 c7 98 355 1078 406 1144 11 13 36 16 54 4z"/>
<path d="M8080 1486 l0 -1226 195 0 195 0 0 435 0 435 216 -2 215 -3 31 -55
c85 -156 110 -197 209 -345 133 -198 212 -297 356 -445 l111 -115 84 57 c45
31 111 78 146 103 l63 46 -97 97 c-102 103 -242 273 -338 410 -70 100 -216
341 -216 356 0 6 39 35 86 65 192 120 329 294 380 482 24 87 25 302 2 379 -31
104 -94 218 -160 291 -89 96 -217 170 -380 220 l-103 32 -497 4 -498 5 0
-1226z m935 890 c92 -20 154 -54 221 -121 84 -83 114 -151 121 -269 7 -115 -7
-192 -53 -284 -60 -122 -149 -195 -289 -238 -51 -16 -97 -19 -300 -19 l-240 0
-3 473 -2 472 242 0 c162 -1 263 -5 303 -14z"/>
<path d="M10290 1485 l0 -1225 190 0 190 0 0 1225 0 1225 -190 0 -190 0 0
-1225z"/>
<path d="M11285 2698 c-3 -7 -4 -557 -3 -1223 l3 -1210 194 -3 194 -2 -5 930
c-3 540 -1 933 4 936 14 9 36 -14 103 -110 113 -162 190 -292 493 -826 277
-489 413 -711 552 -897 l24 -33 223 0 223 0 0 1225 0 1225 -190 0 c-145 0
-190 -3 -191 -12 0 -7 0 -433 1 -947 1 -768 -1 -932 -12 -929 -36 12 -234 328
-463 743 -346 624 -488 863 -633 1068 l-55 77 -229 0 c-174 0 -230 -3 -233
-12z"/>
</g>
</svg>
