<?xml version="1.0" standalone="no"?>
<!DOCTYPE svg PUBLIC "-//W3C//DTD SVG 20010904//EN"
 "http://www.w3.org/TR/2001/REC-SVG-20010904/DTD/svg10.dtd">
<svg version="1.0" xmlns="http://www.w3.org/2000/svg"
 width="444.000000pt" height="625.000000pt" viewBox="0 0 444.000000 625.000000"
 preserveAspectRatio="xMidYMid meet">

<g transform="translate(0.000000,625.000000) scale(0.100000,-0.100000)"
fill="#006994" stroke="none">
<path d="M2139 6201 c-95 -99 -219 -301 -219 -357 0 -16 20 -37 68 -72 90 -66
208 -142 222 -142 16 0 211 133 254 174 32 30 37 40 32 63 -27 111 -235 383
-293 383 -9 0 -38 -22 -64 -49z m130 -297 c57 -87 30 -154 -61 -154 -61 0 -88
24 -88 78 0 38 14 67 58 114 31 34 48 27 91 -38z"/>
<path d="M1748 5652 c146 -161 241 -318 304 -505 26 -76 32 -112 36 -212 13
-329 -115 -758 -457 -1534 -286 -648 -377 -937 -388 -1236 -16 -436 183 -807
521 -970 369 -178 814 -115 1112 158 168 154 287 426 301 687 17 324 -82 667
-404 1405 -222 507 -362 884 -399 1071 -23 115 -27 592 -6 664 35 117 177 330
325 487 l82 86 -90 -6 c-151 -11 -265 -56 -404 -161 -63 -48 -77 -54 -90 -43
-9 7 -36 30 -60 51 -89 78 -299 156 -418 156 l-54 0 89 -98z m502 -2052 c33
-33 78 -108 230 -385 206 -373 234 -440 205 -483 -8 -11 -54 -46 -102 -78
-170 -112 -342 -313 -428 -500 -84 -181 -120 -348 -130 -599 -7 -161 -17 -205
-49 -205 -32 0 -144 68 -203 123 -273 256 -308 662 -101 1182 81 205 411 843
481 930 32 41 66 46 97 15z m581 -1190 c29 -39 49 -194 49 -380 0 -167 -5
-197 -46 -300 -73 -186 -270 -359 -456 -400 -76 -17 -120 -11 -136 20 -17 33
-9 285 13 388 49 236 164 438 320 565 73 59 205 138 224 135 8 -2 22 -14 32
-28z"/>
<path d="M14 2759 c8 -13 84 -92 168 -174 228 -224 290 -314 501 -720 161
-311 230 -434 297 -535 106 -157 311 -341 480 -430 176 -91 526 -159 615 -118
14 6 42 39 62 72 40 67 62 96 74 96 4 0 30 -36 58 -80 32 -50 61 -84 77 -90
93 -36 388 22 591 115 176 81 382 258 499 430 79 116 166 272 286 515 106 213
192 362 284 491 75 105 246 284 339 353 39 30 77 61 84 70 12 14 9 16 -27 16
-79 0 -301 -57 -415 -107 -271 -119 -464 -239 -503 -315 -8 -15 -21 -83 -30
-150 -45 -363 -148 -631 -321 -835 -140 -165 -375 -293 -623 -339 -114 -22
-445 -25 -556 -6 -368 63 -646 247 -802 532 -70 127 -163 458 -195 691 -8 53
-21 106 -31 121 -49 75 -282 214 -524 313 -121 49 -155 59 -273 80 -46 8 -95
18 -108 21 -23 7 -23 6 -7 -17z"/>
<path d="M2176 756 c-37 -83 -84 -216 -123 -344 -69 -230 -48 -319 91 -393 30
-16 52 -20 93 -17 46 4 60 10 94 44 84 82 97 161 54 322 -38 142 -158 442
-176 442 -5 0 -20 -24 -33 -54z"/>
</g>
</svg>
